<svg id="global" xmlns="http://www.w3.org/2000/svg" width="20" height="20" viewBox="0 0 20 20">
  <g id="Group_6369" data-name="Group 6369">
    <path id="Path_6985" data-name="Path 6985" d="M17.071,2.929A10,10,0,0,0,2.929,17.071,10,10,0,0,0,17.071,2.929ZM8.1,1.378A12.8,12.8,0,0,0,7.043,2.545,12.159,12.159,0,0,0,5.485,5.056h-2.8A8.852,8.852,0,0,1,8.1,1.378ZM2.019,6.228h3a11.757,11.757,0,0,0-.592,3.186H1.192A8.762,8.762,0,0,1,2.019,6.228Zm-.828,4.358H4.428a11.756,11.756,0,0,0,.592,3.186h-3A8.762,8.762,0,0,1,1.192,10.586Zm1.5,4.358h2.8a12.16,12.16,0,0,0,1.558,2.511A12.785,12.785,0,0,0,8.1,18.622,8.852,8.852,0,0,1,2.689,14.944Zm6.725,3.291a11.519,11.519,0,0,1-1.457-1.513,11.162,11.162,0,0,1-1.17-1.778H9.414Zm0-4.463H6.259A10.485,10.485,0,0,1,5.6,10.586H9.414Zm0-4.358H5.6a10.485,10.485,0,0,1,.658-3.186H9.414Zm0-4.358H6.787A11.157,11.157,0,0,1,7.929,3.313,11.516,11.516,0,0,1,9.414,1.767Zm9.394,4.358H15.572a11.756,11.756,0,0,0-.592-3.186h3A8.762,8.762,0,0,1,18.808,9.414Zm-1.5-4.358h-2.8a12.16,12.16,0,0,0-1.558-2.511A12.785,12.785,0,0,0,11.9,1.378,8.852,8.852,0,0,1,17.311,5.056ZM10.586,1.765a11.519,11.519,0,0,1,1.457,1.513,11.164,11.164,0,0,1,1.17,1.778H10.586Zm0,4.463h3.156A10.484,10.484,0,0,1,14.4,9.414H10.586Zm0,4.358H14.4a10.485,10.485,0,0,1-.658,3.186H10.586Zm0,7.647V14.944h2.627a11.155,11.155,0,0,1-1.142,1.743A11.516,11.516,0,0,1,10.586,18.233Zm1.311.389a12.8,12.8,0,0,0,1.061-1.168,12.159,12.159,0,0,0,1.558-2.511h2.8A8.852,8.852,0,0,1,11.9,18.622Zm6.084-4.851h-3a11.757,11.757,0,0,0,.592-3.186h3.236A8.762,8.762,0,0,1,17.981,13.772Z" fill="#4f5164"/>
  </g>
</svg>
