<svg xmlns="http://www.w3.org/2000/svg" width="15.43" height="15.43" viewBox="0 0 15.43 15.43">
  <path id="logout" d="M0,8.239a6.6,6.6,0,0,1,3.732-5.8.511.511,0,0,1,.655.157.406.406,0,0,1-.175.587A5.755,5.755,0,0,0,.959,8.239c0,3.216,2.919,5.832,6.507,5.832s6.507-2.616,6.507-5.832a5.755,5.755,0,0,0-3.254-5.052.406.406,0,0,1-.175-.587.511.511,0,0,1,.655-.157,6.6,6.6,0,0,1,3.732,5.8c0,3.7-3.339,6.692-7.464,6.692S0,11.937,0,8.239ZM7.945,6.29h0Zm-.479,0H6.988V.339C6.988.152,7.2,0,7.467,0s.479.152.479.339V6.29Zm-.728,0h0Z" transform="translate(0.25 0.25)" fill="#4f5164" stroke="#4f5164" stroke-width="0.5"/>
</svg>
