<svg xmlns="http://www.w3.org/2000/svg" width="18" height="19.996" viewBox="0 0 18 19.996">
  <g id="notification" transform="translate(-1388 -40)">
    <g id="bell" transform="translate(1362.75 40)">
      <g id="Group_6355" data-name="Group 6355" transform="translate(31.59)">
        <g id="Group_6354" data-name="Group 6354" transform="translate(0)">
          <path id="Path_6978" data-name="Path 6978" d="M190.55,0a2.663,2.663,0,0,0-2.66,2.66v.8h1.376v-.8a1.284,1.284,0,0,1,2.569,0v.8h1.376v-.8A2.663,2.663,0,0,0,190.55,0Z" transform="translate(-187.89)" fill="#4f5164"/>
        </g>
      </g>
      <g id="Group_6357" data-name="Group 6357" transform="translate(30.993 16.762)">
        <g id="Group_6356" data-name="Group 6356" transform="translate(0)">
          <path id="Path_6979" data-name="Path 6979" d="M177.76,429.2a1.86,1.86,0,0,1-1.857,1.858h-.046A1.86,1.86,0,0,1,174,429.2h-1.376a3.237,3.237,0,0,0,3.233,3.233h.046a3.237,3.237,0,0,0,3.233-3.233Z" transform="translate(-172.624 -429.205)" fill="#4f5164"/>
        </g>
      </g>
      <g id="Group_6359" data-name="Group 6359" transform="translate(25.25 2.545)">
        <g id="Group_6358" data-name="Group 6358" transform="translate(0)">
          <path id="Path_6980" data-name="Path 6980" d="M43.14,79.134l-1.952-3.04v-3.9a6.939,6.939,0,1,0-13.878,0v3.9l-1.952,3.04a.688.688,0,0,0,.578,1.06H42.563a.688.688,0,0,0,.578-1.06ZM27.2,78.818l1.38-2.15a.688.688,0,0,0,.109-.372v-4.1a5.565,5.565,0,1,1,11.13,0v4.1a.689.689,0,0,0,.109.372l1.38,2.15Z" transform="translate(-25.25 -65.174)" fill="#4f5164"/>
        </g>
      </g>
    </g>
    <circle id="Ellipse_679" data-name="Ellipse 679" cx="2.5" cy="2.5" r="2.5" transform="translate(1400 43)" fill="#ff5934"/>
  </g>
</svg>
