<svg id="settings" xmlns="http://www.w3.org/2000/svg" width="14.933" height="14.933" viewBox="0 0 14.933 14.933">
  <path id="Path_7034" data-name="Path 7034" d="M137.179,133.609a3.57,3.57,0,1,0,3.57,3.57A3.574,3.574,0,0,0,137.179,133.609Zm0,6.247a2.677,2.677,0,1,1,2.677-2.677A2.68,2.68,0,0,1,137.179,139.856Zm0,0" transform="translate(-129.712 -129.712)" fill="#4f5164"/>
  <path id="Path_7035" data-name="Path 7035" d="M14.582,5.766l-1.148-.25a6.247,6.247,0,0,0-.369-.891l.635-.988a.446.446,0,0,0-.06-.557L11.852,1.293a.446.446,0,0,0-.557-.06l-.988.635A6.246,6.246,0,0,0,9.417,1.5L9.167.351A.446.446,0,0,0,8.731,0H6.2a.446.446,0,0,0-.436.351L5.517,1.5a6.246,6.246,0,0,0-.891.369l-.988-.635a.446.446,0,0,0-.557.06L1.293,3.081a.446.446,0,0,0-.06.557l.635.988a6.246,6.246,0,0,0-.369.891l-1.148.25A.446.446,0,0,0,0,6.2V8.731a.446.446,0,0,0,.351.436l1.148.25a6.246,6.246,0,0,0,.369.891l-.635.988a.446.446,0,0,0,.06.557L3.081,13.64a.446.446,0,0,0,.557.06l.988-.635a6.247,6.247,0,0,0,.891.369l.25,1.148a.446.446,0,0,0,.436.351H8.731a.446.446,0,0,0,.436-.351l.25-1.148a6.247,6.247,0,0,0,.891-.369l.988.635a.446.446,0,0,0,.557-.06l1.788-1.788a.446.446,0,0,0,.06-.557l-.635-.988a6.247,6.247,0,0,0,.369-.891l1.148-.25a.446.446,0,0,0,.351-.436V6.2A.446.446,0,0,0,14.582,5.766Zm-.541,2.6L12.989,8.6a.446.446,0,0,0-.335.316,5.354,5.354,0,0,1-.494,1.192.446.446,0,0,0,.013.461l.583.906-1.279,1.279-.907-.583a.446.446,0,0,0-.461-.013,5.357,5.357,0,0,1-1.192.494.446.446,0,0,0-.316.335l-.229,1.052H6.562l-.229-1.052a.446.446,0,0,0-.316-.335,5.354,5.354,0,0,1-1.192-.494.446.446,0,0,0-.461.013l-.906.583L2.178,11.476l.583-.906a.446.446,0,0,0,.013-.461A5.36,5.36,0,0,1,2.28,8.916.446.446,0,0,0,1.945,8.6L.892,8.371V6.562l1.052-.229a.446.446,0,0,0,.335-.316,5.354,5.354,0,0,1,.494-1.192.446.446,0,0,0-.013-.461l-.583-.906L3.458,2.178l.907.583a.446.446,0,0,0,.461.013A5.357,5.357,0,0,1,6.017,2.28a.446.446,0,0,0,.316-.335L6.562.892H8.371L8.6,1.945a.446.446,0,0,0,.316.335,5.354,5.354,0,0,1,1.192.494.446.446,0,0,0,.461-.013l.906-.583,1.279,1.279-.583.906a.446.446,0,0,0-.013.461,5.354,5.354,0,0,1,.494,1.192.446.446,0,0,0,.335.316l1.053.229Zm0,0" fill="#4f5164"/>
</svg>
