<svg xmlns="http://www.w3.org/2000/svg" width="17.135" height="11.997" viewBox="0 0 17.135 11.997">
  <g id="youtube" transform="translate(2184 -983)">
    <path id="Path_7030" data-name="Path 7030" d="M16.782,1.877a2.147,2.147,0,0,0-1.51-1.51A50.145,50.145,0,0,0,8.567,0a52.11,52.11,0,0,0-6.7.353A2.191,2.191,0,0,0,.353,1.877,22.621,22.621,0,0,0,0,6,22.538,22.538,0,0,0,.353,10.12a2.147,2.147,0,0,0,1.51,1.51,50.249,50.249,0,0,0,6.7.367,52.11,52.11,0,0,0,6.7-.353,2.147,2.147,0,0,0,1.51-1.51,22.622,22.622,0,0,0,.353-4.121A21.472,21.472,0,0,0,16.782,1.877Zm0,0" transform="translate(-2184 983)" fill="#888da8"/>
    <path id="Path_7031" data-name="Path 7031" d="M204.969,107.622l4.46-2.569-4.46-2.569Zm0,0" transform="translate(-2382.109 883.945)" fill="#fff"/>
  </g>
</svg>
